<svg height="383pt" viewBox="0 0 383 383" xmlns="http://www.w3.org/2000/svg">
    <g transform="translate(-40 0) rotate(180 192 192)">
        <path d="m288.394531 231.792969c0 75.117187-60.878906 136-136 136-75.117187 0-136-60.882813-136-136 0-75.121094 136-216 136-216s136 140.878906 136 216zm0 0"
              fill="#4dd0e1"/>
        <g fill="#012e52">
            <path d="m152.394531 383.792969c83.816407 0 152-68.183594 152-152 0-79.296875-126.109375-212.21875-140.496093-227.113281-6.03125-6.238282-16.984376-6.238282-23.015626 0-14.375 14.894531-140.488281 147.816406-140.488281 227.113281 0 83.816406 68.183594 152 152 152zm0-344.617188c41.800781 45.632813 120 141.542969 120 192.617188 0 66.167969-53.832031 120-120 120s-120-53.832031-120-120c0-51.074219 78.203125-146.984375 120-192.617188zm0 0"/>
            <path d="m194.378906 296.40625c3.128906 3.113281 7.210938 4.664062 11.296875 4.664062 4.105469 0 8.199219-1.566406 11.335938-4.703124 31.097656-31.199219 31.097656-81.960938 0-113.160157-6.246094-6.253906-16.367188-6.269531-22.632813-.03125-6.253906 6.238281-6.269531 16.367188-.039062 22.632813 18.679687 18.734375 18.679687 49.230468 0 67.96875-6.230469 6.261718-6.214844 16.390625.039062 22.628906zm0 0"/>
        </g>
    </g>
</svg>