<?xml version="1.0" encoding="iso-8859-1"?>
<!-- Generator: Adobe Illustrator 19.0.0, SVG Export Plug-In . SVG Version: 6.00 Build 0)  -->
<svg version="1.1" id="Layer_1" xmlns="http://www.w3.org/2000/svg" xmlns:xlink="http://www.w3.org/1999/xlink" x="0px" y="0px"
	 viewBox="0 0 512 512" style="enable-background:new 0 0 512 512;" xml:space="preserve">
<path style="fill:#6D6D6D;" d="M255.999,512c-17.982,0-35.964-6.844-49.654-20.533L20.534,305.654
	c-27.379-27.38-27.379-71.928,0-99.307L206.345,20.534c27.379-27.379,71.927-27.379,99.307,0l185.813,185.813
	c27.379,27.38,27.379,71.928,0,99.307l0,0L305.653,491.466C291.964,505.156,273.982,512,255.999,512z"/>
<path style="fill:#444444;" d="M491.466,206.346L305.653,20.534c-27.38-27.379-71.928-27.379-99.307,0L20.534,206.346
	c-27.379,27.38-27.379,71.928,0,99.307l185.813,185.813C220.036,505.156,238.017,512,255.999,512s35.965-6.844,49.654-20.533
	l185.813-185.813C518.845,278.274,518.845,233.725,491.466,206.346z M475.724,289.913L289.913,475.724
	c-9.037,9.037-21.081,14.014-33.913,14.014c-12.831,0-24.875-4.978-33.913-14.013L36.275,289.913
	c-18.699-18.7-18.699-49.126,0-67.826L222.086,36.275c9.35-9.35,21.631-14.024,33.912-14.024c12.282,0,24.564,4.675,33.913,14.024
	l185.811,185.813C494.423,240.787,494.423,271.213,475.724,289.913z"/>
<path style="fill:#FFCB39;" d="M272.55,53.636l185.811,185.813c9.127,9.126,9.127,23.976,0.001,33.102L272.55,458.363
	c-9.126,9.127-23.976,9.126-33.102,0.001L53.636,272.551c-9.127-9.126-9.127-23.976-0.001-33.102L239.448,53.636
	c4.563-4.563,10.556-6.845,16.551-6.845C261.993,46.792,267.988,49.074,272.55,53.636z"/>
<path style="fill:#FF9600;" d="M458.363,272.551L306.037,424.876l105.534-145.982c9.126-12.624,9.126-33.165-0.001-45.789
	L306.036,87.122l152.327,152.327C467.489,248.575,467.489,263.425,458.363,272.551z"/>
<path style="fill:#6D6D6D;" d="M283.826,361.739c0,15.368-12.458,27.826-27.826,27.826s-27.826-12.458-27.826-27.826
	s12.458-27.826,27.826-27.826S283.826,346.371,283.826,361.739z M255.999,111.304c-15.368,0-27.826,12.458-27.826,27.826v122.435
	c0,15.368,12.458,27.826,27.826,27.826s27.826-12.458,27.826-27.826V139.13C283.826,123.762,271.367,111.304,255.999,111.304z"/>
<path style="fill:#444444;" d="M283.826,139.13v122.435c0,15.368-12.458,27.826-27.826,27.826c-5.07,0-9.819-1.362-13.913-3.732
	c8.314-4.812,13.913-13.796,13.913-24.094V139.13c0-10.298-5.599-19.282-13.913-24.094c4.094-2.37,8.843-3.732,13.913-3.732
	C271.367,111.304,283.826,123.762,283.826,139.13z M255.999,333.913c-5.07,0-9.819,1.362-13.913,3.732
	c8.314,4.812,13.913,13.796,13.913,24.094s-5.599,19.282-13.913,24.094c4.094,2.37,8.843,3.732,13.913,3.732
	c15.368,0,27.826-12.458,27.826-27.826S271.367,333.913,255.999,333.913z"/>
<g>
</g>
<g>
</g>
<g>
</g>
<g>
</g>
<g>
</g>
<g>
</g>
<g>
</g>
<g>
</g>
<g>
</g>
<g>
</g>
<g>
</g>
<g>
</g>
<g>
</g>
<g>
</g>
<g>
</g>
</svg>
