<svg viewBox="0 0 450 450" width="512pt" xmlns="http://www.w3.org/2000/svg">
    <g transform="translate(50,-100)">
        <path d="m318.480469 266.273438 37.601562-37.597657-67.210937-67.203125-36.050782 36.050782" fill="#52607e"/>
        <path d="m287.148438 454.921875c-63.402344 63.394531-166.195313 63.394531-229.597657 0-63.402343-63.398437-63.402343-166.1875 0-229.582031 63.402344-63.398438 166.195313-63.398438 229.597657 0 63.402343 63.394531 63.402343 166.183594 0 229.582031zm0 0"
              fill="#52607e"/>
        <path d="m366.082031 228.675781c0-2.652343-1.054687-5.195312-2.929687-7.070312l-67.207032-67.203125c-3.90625-3.90625-10.234374-3.90625-14.144531 0l-31.839843 31.835937c-64.621094-32.523437-145.597657-21.847656-199.480469 32.03125-32.550781 32.550781-50.480469 75.828125-50.480469 121.859375 0 46.035156 17.929688 89.3125 50.480469 121.863282 33.597656 33.597656 77.734375 50.394531 121.867187 50.394531 44.136719 0 88.269532-16.796875 121.871094-50.394531 32.550781-32.550782 50.480469-75.828126 50.480469-121.863282 0-24.820312-5.214844-48.839844-15.121094-70.808594l33.574219-33.574218c1.875-1.875 2.929687-4.417969 2.929687-7.070313zm-86.007812 219.175781c-29.703125 29.699219-68.707031 44.550782-107.726563 44.546876-39.007812-.003907-78.03125-14.851563-107.726562-44.546876-28.773438-28.773437-44.621094-67.03125-44.621094-107.722656s15.847656-78.945312 44.621094-107.71875c29.703125-29.699218 68.714844-44.546875 107.726562-44.546875 39.015625 0 78.027344 14.847657 107.726563 44.546875 28.777343 28.773438 44.625 67.027344 44.625 107.71875s-15.847657 78.949219-44.625 107.722656zm39.742187-197.054687c-7.113281-11.6875-15.675781-22.605469-25.597656-32.527344-8.210938-8.214843-17.058594-15.421875-26.375-21.628906l21.027344-21.027344 53.066406 53.0625zm0 0"/>
        <path d="m172.351562 227.84375c-.652343 0-1.3125-.058594-1.953124-.191406-.636719-.128906-1.269532-.316406-1.878907-.566406-.597656-.25-1.179687-.5625-1.71875-.921876-.550781-.371093-1.0625-.789062-1.519531-1.25-.460938-.460937-.882812-.96875-1.242188-1.519531-.367187-.539062-.667968-1.121093-.917968-1.71875-.25-.613281-.449219-1.230469-.582032-1.871093-.117187-.652344-.1875-1.300782-.1875-1.960938 0-.648438.070313-1.308594.1875-1.949219.132813-.640625.332032-1.269531.582032-1.871093.25-.597657.550781-1.1875.917968-1.730469.359376-.539063.78125-1.058594 1.242188-1.519531.457031-.460938.96875-.878907 1.519531-1.238282.539063-.359375 1.121094-.671875 1.71875-.921875.609375-.25 1.242188-.4375 1.878907-.570312 1.292968-.257813 2.613281-.257813 3.902343 0 .640625.132812 1.269531.320312 1.871094.570312.609375.25 1.1875.5625 1.726563.921875.550781.359375 1.0625.777344 1.523437 1.238282.457031.460937.878906.980468 1.238281 1.519531.359375.542969.667969 1.132812.917969 1.730469.25.601562.441406 1.230468.570313 1.871093.132812.640625.203124 1.300781.203124 1.949219 0 .660156-.070312 1.308594-.203124 1.960938-.128907.640624-.320313 1.257812-.570313 1.871093-.25.597657-.558594 1.179688-.917969 1.71875-.359375.550781-.78125 1.058594-1.238281 1.519531-.460937.460938-.972656.878907-1.523437 1.25-.539063.359376-1.117188.671876-1.726563.921876-.601563.25-1.230469.4375-1.871094.566406-.640625.132812-1.300781.191406-1.949219.191406zm0 0"/>
        <path d="m85.878906 436.597656c-2.5625 0-5.121094-.976562-7.074218-2.929687-24.949219-24.949219-38.6875-58.167969-38.6875-93.539063s13.738281-68.589844 38.6875-93.535156c14.789062-14.789062 32.230468-25.578125 51.847656-32.070312 5.242187-1.738282 10.898437 1.109374 12.632812 6.355468 1.738282 5.242188-1.105468 10.898438-6.351562 12.632813-16.625 5.503906-31.425782 14.664062-43.988282 27.222656-21.171874 21.171875-32.832031 49.367187-32.832031 79.394531 0 30.03125 11.660157 58.226563 32.832031 79.398438 3.90625 3.902344 3.90625 10.234375 0 14.140625-1.949218 1.953125-4.507812 2.929687-7.066406 2.929687zm0 0"/>
    </g>

</svg>
