<?xml version="1.0" standalone="no"?><!-- Generator: Gravit.io -->
<svg xmlns="http://www.w3.org/2000/svg" style="isolation:isolate" viewBox="0 0 512 512" width="512" height="512">
    <defs>
        <clipPath id="_clipPath_qv1TZNwdAMlrHxjZi0ECkDrEEPwruugC">
            <rect width="512" height="512"/>
        </clipPath>
    </defs>
    <g clip-path="url(#_clipPath_qv1TZNwdAMlrHxjZi0ECkDrEEPwruugC)">
        <g>
            <path d=" M 501.801 46.009 L 10.199 46.009 C 4.566 46.009 0 50.575 0 56.208 L 0 141.923 C 0 147.556 4.566 152.122 10.199 152.122 L 47.899 152.122 L 47.899 455.792 C 47.899 461.425 52.465 465.991 58.098 465.991 L 453.9 465.991 C 459.533 465.991 464.099 461.425 464.099 455.792 L 464.099 152.122 L 501.799 152.122 C 507.432 152.122 511.998 147.556 511.998 141.923 L 511.998 56.208 C 512 50.575 507.434 46.009 501.801 46.009 Z  M 443.702 445.592 L 68.298 445.592 L 443.702 445.592 Z  M 70.808 152.122"
                  fill="white"/>
        </g>
        <g>
            <path d=" M 501.801 46.009 L 10.199 46.009 C 4.566 46.009 0 50.575 0 56.208 L 0 141.923 C 0 147.556 4.566 152.122 10.199 152.122 L 47.899 152.122 L 47.899 455.792 C 47.899 461.425 52.465 465.991 58.098 465.991 L 453.9 465.991 C 459.533 465.991 464.099 461.425 464.099 455.792 L 464.099 152.122 L 501.799 152.122 C 507.432 152.122 511.998 147.556 511.998 141.923 L 511.998 56.208 C 512 50.575 507.434 46.009 501.801 46.009 Z  M 443.702 445.592 L 68.298 445.592 L 68.298 208.727 C 102.275 278.149 173.641 326.074 256 326.074 C 338.359 326.074 409.725 278.149 443.702 208.726 L 443.702 445.592 Z  M 70.808 152.122 L 441.192 152.122 C 424.782 239.417 347.989 305.675 256 305.675 C 164.011 305.675 87.219 239.417 70.808 152.122 Z  M 491.602 131.724 L 464.33 131.724 C 464.659 126.934 464.841 122.104 464.841 117.232 L 464.841 106.629 C 464.841 100.996 460.275 96.43 454.642 96.43 C 449.009 96.43 444.443 100.996 444.443 106.629 L 444.443 117.232 C 444.443 122.107 444.256 126.941 443.891 131.724 L 68.108 131.724 C 67.743 126.941 67.556 122.107 67.556 117.232 L 67.556 106.629 C 67.556 100.996 62.99 96.43 57.357 96.43 C 51.724 96.43 47.158 100.996 47.158 106.629 L 47.158 117.232 C 47.158 122.104 47.34 126.935 47.669 131.724 L 20.398 131.724 L 20.398 66.407 L 491.601 66.407 L 491.601 131.724 L 491.602 131.724 Z "
                  fill="rgb(0,0,0)"/>
        </g>
    </g>
</svg>