<?xml version="1.0" encoding="iso-8859-1"?>
<svg version="1.1" id="Layer_1" xmlns="http://www.w3.org/2000/svg"  x="0px" y="0px"
	 viewBox="0 0 512 512" style="enable-background:new 0 0 512 512;" xml:space="preserve">
<g>
	<g>
		<path

				d="M501.801,46.009H10.199C4.566,46.009,0,50.575,0,56.208v85.715c0,5.633,4.566,10.199,10.199,10.199h37.7v303.67
			c0,5.633,4.566,10.199,10.199,10.199h395.802c5.633,0,10.199-4.566,10.199-10.199v-303.67h37.7
			c5.633,0,10.199-4.566,10.199-10.199V56.208C512,50.575,507.434,46.009,501.801,46.009z M443.702,445.592H68.298V208.727
			C102.275,278.149,173.641,326.074,256,326.074s153.725-47.925,187.702-117.348V445.592z M70.808,152.122h370.384
			C424.782,239.417,347.989,305.675,256,305.675S87.219,239.417,70.808,152.122z M491.602,131.724H464.33
			c0.329-4.79,0.511-9.62,0.511-14.492v-10.603c0-5.633-4.566-10.199-10.199-10.199s-10.199,4.566-10.199,10.199v10.603
			c0,4.875-0.187,9.709-0.552,14.492H68.108c-0.365-4.783-0.552-9.617-0.552-14.492v-10.603c0-5.633-4.566-10.199-10.199-10.199
			c-5.633,0-10.199,4.566-10.199,10.199v10.603c0,4.872,0.182,9.703,0.511,14.492H20.398V66.407h471.203V131.724z"/>
	</g>
</g>
</svg>
