<?xml version="1.0" encoding="iso-8859-1"?>
<!-- Generator: Adobe Illustrator 19.0.0, SVG Export Plug-In . SVG Version: 6.00 Build 0)  -->
<svg version="1.1" id="Layer_1" xmlns="http://www.w3.org/2000/svg" xmlns:xlink="http://www.w3.org/1999/xlink" x="0px" y="0px"
	 viewBox="0 0 512 512" style="enable-background:new 0 0 512 512;" xml:space="preserve">
<path style="fill:#FF328F;" d="M502.754,159.65c-8.325-59.759-56.215-108.775-115.809-118.21
	c-43.721-6.921-84.374,6.453-114.142,32.118c-9.102,7.847-22.191,7.85-31.292,0.001c-29.797-25.69-70.498-39.066-114.267-32.1
	C68.343,50.835,20.719,98.866,11.809,157.839c-6.663,44.094,7.261,85.064,33.609,114.756c4.327,4.877,196.251,194.51,196.251,194.51
	c9.228,9.166,24.13,9.14,33.327-0.057l190.185-190.592C493.485,246.901,509.08,205.069,502.754,159.65z"/>
<path style="fill:#E80D6B;" d="M502.754,159.65c-8.325-59.759-56.215-108.775-115.809-118.21
	c-23.614-3.738-46.328-1.547-66.919,5.294c4.778,0.356,9.595,0.913,14.444,1.681c70.984,11.237,128.026,69.621,137.942,140.801
	c4.701,33.748-0.762,65.832-13.72,93.743l6.488-6.502C493.485,246.901,509.08,205.069,502.754,159.65z"/>
<path style="fill:#FF73B1;" d="M94.259,266.293c-26.347-29.691-40.272-70.663-33.612-114.756
	c7.911-52.342,46.432-96.019,96.152-111.744c-9.619-0.444-19.522,0.07-29.558,1.666C68.34,50.835,20.719,98.866,11.806,157.838
	c-6.661,44.094,7.26,85.064,33.607,114.756c4.33,4.878,196.251,194.51,196.251,194.51c9.232,9.166,24.131,9.14,33.325-0.055
	l10.843-10.864C256.474,427.168,98.182,270.719,94.259,266.293z"/>
<g>
	<path style="fill:#1C2042;" d="M429.295,297.683l-10.608,11.047c-3.451,3.593-3.336,9.305,0.257,12.757
		c1.75,1.679,4.001,2.514,6.248,2.514c2.371,0,4.737-0.928,6.508-2.773l10.608-11.047c3.451-3.593,3.336-9.305-0.257-12.758
		C438.455,293.973,432.747,294.089,429.295,297.683z"/>
	<path style="fill:#1C2042;" d="M510.53,157.603c-8.92-64.031-59.637-115.792-123.335-125.877
		c-43.911-6.952-88.174,5.512-121.444,34.196c-5.744,4.952-13.766,4.952-19.509,0.001c-33.309-28.717-77.625-41.174-121.577-34.177
		C61.797,41.753,11.242,92.721,1.726,155.689c-6.71,44.403,6.333,88.904,35.781,122.092
		c4.396,4.956,176.992,175.509,196.642,194.924c6.346,6.303,14.667,9.453,22.989,9.453c8.362,0,16.724-3.181,23.082-9.537
		l95.672-95.878c3.52-3.527,3.514-9.24-0.013-12.759c-3.527-3.519-9.24-3.514-12.759,0.013l-95.666,95.871
		c-5.664,5.666-14.902,5.682-20.605,0.018c-52.868-52.238-191.12-188.943-195.843-194.081
		c-25.887-29.173-37.345-68.326-31.437-107.419c8.354-55.285,52.738-100.032,107.932-108.817
		c38.702-6.157,77.682,4.784,106.957,30.023c12.479,10.76,30.595,10.76,43.076-0.001c29.241-25.21,68.175-36.16,106.84-30.04
		c26.904,4.26,52.507,17.624,72.096,37.633c19.573,19.995,32.424,45.888,36.189,72.91c5.612,40.287-7.201,80.133-35.155,109.321
		c-3.445,3.599-3.323,9.31,0.276,12.757c3.597,3.447,9.309,3.323,12.757-0.275C502.33,248.694,516.908,203.392,510.53,157.603z"/>
</g>
<g>
	<path style="fill:#FFFFFF;" d="M85.918,255.162c-2.789,0-5.54-1.288-7.305-3.717c-9.361-12.874-17.009-26.901-22.735-41.695
		c-1.8-4.647,0.51-9.873,5.157-11.671c4.647-1.802,9.872,0.51,11.671,5.157c5.163,13.336,12.06,25.986,20.502,37.596
		c2.931,4.031,2.039,9.673-1.991,12.604C89.615,254.6,87.758,255.162,85.918,255.162z"/>
	<path style="fill:#FFFFFF;" d="M51.882,178.193c-3.984,0-7.629-2.659-8.71-6.691l-0.217-0.814c-0.07-0.267-0.126-0.535-0.171-0.804
		l-0.085-0.377c-1.142-4.85,1.865-9.708,6.715-10.85c4.852-1.144,9.708,1.865,10.85,6.715c0.067,0.283,0.124,0.559,0.172,0.829
		l0.168,0.63c1.29,4.813-1.568,9.761-6.381,11.05C53.441,178.093,52.655,178.193,51.882,178.193z M48.252,159.96
		c-4.447,1.817-6.126,6.386-5.48,9.847C42.132,165.705,44.352,161.554,48.252,159.96z"/>
</g>
<g>
</g>
<g>
</g>
<g>
</g>
<g>
</g>
<g>
</g>
<g>
</g>
<g>
</g>
<g>
</g>
<g>
</g>
<g>
</g>
<g>
</g>
<g>
</g>
<g>
</g>
<g>
</g>
<g>
</g>
</svg>
