<svg height="512pt" viewBox="0 0 500 500" width="512pt" xmlns="http://www.w3.org/2000/svg">
    <g transform="translate(0,0)">
        <path d="m331.507812 153.351562c21.316407 48.601563 97.210938 41.78125 110-9.378906.425782-.425781 0-.855468.425782-1.28125-21.144532-12.921875-13.214844-40.5-9.378906-55.421875 4.261718-15.347656 11.085937-30.699219 24.726562-39.222656-17.90625-2.558594-36.664062 1.703125-52.015625 11.082031-15.347656 9.378906-27.285156 24.726563-33.253906 41.78125-1.707031-11.085937 1.277343-23.449218 8.953125-31.972656-14.921875 1.277344-29.84375 7.671875-40.078125 18.757812-16.628907 16.625-18.332031 44.765626-9.378907 65.65625zm0 0"
              fill="#f05f90"/>
        <path d="m383.941406 196.324219c-27.257812 0-51-14.8125-61.59375-38.957031-.007812-.027344-.019531-.050782-.03125-.078126-9.394531-21.921874-9.832031-55.1875 11.359375-76.523437 11.433594-12.300781 28.34375-20.242187 46.433594-21.792969 2.386719-.203125 4.714844.457032 6.597656 1.773438 4.140625-3.84375 8.613281-7.257813 13.347657-10.148438 17.558593-10.730468 38.9375-15.269531 58.644531-12.453125 4.15625.59375 7.5 3.722657 8.371093 7.832031.867188 4.109376-.925781 8.324219-4.484374 10.546876-9.15625 5.722656-15.632813 16.316406-20.371094 33.335937l-.347656 1.34375c-4.492188 17.355469-7.785157 34.96875 5.285156 42.953125 2.613281 1.601562 4.351562 4.308594 4.714844 7.351562.164062 1.394532.035156 2.789063-.363282 4.097657-.148437.722656-.355468 1.378906-.601562 1.980469-7.289063 26.996093-30.914063 45.964843-60.535156 48.464843-2.15625.183594-4.308594.273438-6.425782.273438zm-43.257812-46.949219c9.628906 21.894531 31.097656 28.175781 48.003906 26.746094 15.066406-1.269532 34.257812-9.855469 41.617188-29.703125-18.894532-17.363281-11.519532-45.855469-7.800782-60.222657l.367188-1.417968c.015625-.0625.03125-.125.050781-.1875 2.128906-7.664063 5.269531-17.113282 10.648437-25.929688-8.082031 1.613282-15.976562 4.65625-23.089843 9.003906-13.125 8.019532-23.707031 21.34375-29.03125 36.550782-1.515625 4.332031-5.785157 7.078125-10.355469 6.652344-4.570312-.421876-8.269531-3.898438-8.964844-8.4375-.953125-6.195313-.75-12.449219.507813-18.390626-5.542969 2.636719-10.464844 6.171876-14.402344 10.4375-.089844.097657-.183594.195313-.273437.289063-14.09375 14.085937-14.324219 38.128906-7.277344 54.609375zm0 0"/>
        <path d="m465.046875 235.859375c-2.558594 0-5.117187-.972656-7.070313-2.925781l-14.164062-14.164063c-3.90625-3.902343-3.90625-10.234375 0-14.140625s10.238281-3.90625 14.140625 0l14.164063 14.160156c3.90625 3.90625 3.90625 10.238282.003906 14.144532-1.953125 1.949218-4.515625 2.925781-7.074219 2.925781zm0 0"/>
        <path d="m300.789062 71.613281c-2.558593 0-5.117187-.976562-7.070312-2.929687l-14.164062-14.164063c-3.90625-3.90625-3.90625-10.234375 0-14.140625 3.902343-3.90625 10.234374-3.90625 14.140624 0l14.164063 14.160156c3.90625 3.90625 3.90625 10.238282 0 14.144532-1.953125 1.953125-4.511719 2.929687-7.070313 2.929687zm0 0"/>
        <path d="m502 146.65625h-20.03125c-5.519531 0-10-4.476562-10-10s4.480469-10 10-10h20.03125c5.523438 0 10 4.476562 10 10s-4.476562 10-10 10zm0 0"/>
        <path d="m375.835938 40.527344c-5.523438 0-10-4.476563-10-10v-20.027344c0-5.523438 4.476562-10 10-10 5.523437 0 10 4.476562 10 10v20.027344c0 5.523437-4.476563 10-10 10zm0 0"/>
    </g>
    <animateTransform attributeType="xml" attributeName="transform" type="rotate"
                      from="360 0 2" to="0 0 4" dur="1s"
                      additive="sum" repeatCount="indefinite"/>

</svg>