<?xml version="1.0" encoding="UTF-8" standalone="no"?>
<!-- Created with Inkscape (http://www.inkscape.org/) -->
<svg
   xmlns:svg="http://www.w3.org/2000/svg"
   xmlns="http://www.w3.org/2000/svg"
   version="1.1"
   width="396.64697"
   height="436.32166"
   id="bomb-sprite">
  <g
     transform="translate(-134.86181,-304.26631)"
     id="layer1">
    <path
       d="m 313.68154,516.21494 c 0,0 -31.2158,-19.62003 -12.81313,-47.47494 18.40266,-27.85489 46.07572,-15.74676 61.34922,-30.99701 15.27351,-15.25025 0.81116,-43.59891 0.81116,-43.59891"
       id="path3015"
       style="fill:none;stroke:#000000;stroke-width:7.69999981;stroke-linecap:butt;stroke-linejoin:miter;stroke-miterlimit:4;stroke-opacity:1;stroke-dasharray:none" />
    <path
       d="m 289.35903,522.09904 41.09081,-24.54854 c 1.33166,-0.79556 3.04418,-0.36397 3.83974,0.96769 l 20.23235,33.86613 c 0.79556,1.33165 0.36398,3.04418 -0.96768,3.83974 l -41.09081,24.54853 c -1.33165,0.79556 -3.04418,0.36397 -3.83974,-0.96768 l -20.23235,-33.86614 c -0.79556,-1.33165 -0.36397,-3.04417 0.96768,-3.83973 z m 154.54194,28.75312 c 25.89703,43.34801 11.75022,99.4822 -31.59778,125.37923 -43.348,25.89702 -99.48219,11.75021 -125.37922,-31.59779 -25.89702,-43.348 -11.75021,-99.48219 31.59778,-125.37922 43.34801,-25.89703 99.4822,-11.75021 125.37922,31.59778 z"
       id="rect2987"
       style="fill:#000000;fill-opacity:1;fill-rule:nonzero;stroke:none" />
    <path
       d="m 478.39161,386.71474 -98.57413,8.94313 50.69051,37.0038 -58.94508,-32.45358 22.63487,63.01608 -27.81129,-56.26137 -9.2974,14.65852 3.82931,-19.31639 -46.29774,19.56173 36.8638,-24.18407 -82.01228,0.7584 85.72108,-7.97897 -55.05718,-38.9892 57.64621,31.46256 -6.29084,-39.20773 13.58476,40.72968 18.70985,-66.92998 -14.32419,66.22679 30.9552,-22.76462 -21.25746,25.46239 z"
       id="path2994"
       style="fill:#ff0000;fill-opacity:1;fill-rule:nonzero;stroke:none" />
    <path
       d="m 464.56922,387.23823 -87.81523,7.45335 43.14805,31.44446 -49.60473,-27.86726 19.08935,54.55976 -22.76647,-47.90475 -7.5105,11.70731 3.18099,-15.65111 -39.51566,16.42 32.37662,-20.75372 -70.7789,1.00563 74.54447,-6.04967 -51.81449,-35.82748 52.28801,29.38317 -6.09939,-32.17118 11.64042,33.88828 14.48153,-51.21241 -11.25697,49.81117 26.6546,-19.06288 -17.88927,21.12653 z"
       id="path2994-6"
       style="fill:#ffff00;fill-opacity:1;fill-rule:nonzero;stroke:none" />
    <path
       d="m 316.90452,536.24255 c -34.56868,23.0574 -43.92107,69.76316 -20.86367,104.33184 6.12333,9.18035 13.93211,16.5834 22.72184,22.07004 -5.42241,-4.61622 -10.31311,-10.05545 -14.46066,-16.27362 -24.0801,-36.10195 -14.33797,-84.87155 21.76397,-108.95165 12.99739,-8.6693 27.63926,-12.93466 42.18015,-13.18394 -17.38338,-2.24409 -35.61488,1.51754 -51.34163,12.00733 z"
       id="path3797"
       style="fill:#696969;fill-opacity:1;fill-rule:nonzero;stroke:none" />
  </g>
  <animateTransform attributeType="xml" attributeName="transform" type="rotate" from="360 0 12" to="0 0 12" dur="1s" additive="sum" repeatCount="indefinite" />
</svg>
