<?xml version="1.0" encoding="iso-8859-1"?>
<!-- Generator: Adobe Illustrator 19.0.0, SVG Export Plug-In . SVG Version: 6.00 Build 0)  -->
<svg version="1.1" id="Layer_1" xmlns="http://www.w3.org/2000/svg" xmlns:xlink="http://www.w3.org/1999/xlink" x="0px" y="0px"
	 viewBox="0 0 496.2 496.2" style="enable-background:new 0 0 496.2 496.2;" xml:space="preserve">
<path style="fill:#32BEA6;" d="M496.2,248.1C496.2,111.1,385.1,0,248.1,0S0,111.1,0,248.1s111.1,248.1,248.1,248.1
	S496.2,385.1,496.2,248.1z"/>
<path style="fill:#EFB533;" d="M372.6,372.6c68.8-68.8,68.8-180.3,0-249c-68.8-68.8-180.2-68.8-249,0s-68.8,180.2,0,249
	S303.8,441.4,372.6,372.6z"/>
<path style="fill:#E5AA17;" d="M372.6,372.6c68.8-68.8,68.8-180.3,0-249l-249,249C192.4,441.4,303.8,441.4,372.6,372.6z"/>
<path style="fill:#F4DE7F;" d="M356,356c59.6-59.6,59.6-156.2,0-215.8s-156.2-59.6-215.8,0s-59.6,156.2,0,215.8S296.4,415.6,356,356
	z"/>
<path style="fill:#F2D55A;" d="M356,356c59.6-59.6,59.6-156.2,0-215.8L140.2,356C199.8,415.6,296.4,415.6,356,356z"/>
<path style="fill:#E5AA17;" d="M306.6,195.4c0,11.2-12.7,19.2-13.5,18.2c-9.5-11-25.7-19.2-42.2-19.2c-16.7,0-26.9,7.5-26.9,18.7
	c0,13,13.7,16.5,32.9,20.7c22.9,5,53.1,14.2,53.1,46.9c0,25.2-17.5,42.6-46.6,47.1v9.7c0,11.5-4.5,17-14.5,17h-1.3
	c-10.5,0-14.2-5.2-14.2-17v-9.2c-30.2-3.2-47.4-17-47.4-30.9c0-10.7,12-18.5,13-17.5c9.5,11.5,27.9,20.9,47.4,20.9
	c17.7,0,27.9-7.5,27.9-18.7c0-13.7-15.5-17.5-33.7-21.7c-21.9-4.7-50.9-13.5-50.9-46.4c0-23.9,17-41.1,43.9-46.1v-9.2
	c0-11.5,4.2-17,14.2-17h1.5c10.2,0,14.2,5.2,14.2,17v8.5C291.4,170.2,306.6,182.6,306.6,195.4z"/>
<g>
	<path style="fill:#F2D55A;" d="M274.4,282.1c0-13.7-15.5-17.5-33.7-21.7c-1.3-0.3-2.7-0.6-4.1-0.9l-28.7,28.7
		c10.1,7.4,24,12.7,38.5,12.7C264.2,300.8,274.4,293.4,274.4,282.1z"/>
	<path style="fill:#F2D55A;" d="M356,140.2l-50.2,50.2c0.5,1.6,0.8,3.3,0.8,5c0,11.2-12.7,19.2-13.5,18.2c-1.6-1.8-3.4-3.6-5.3-5.2
		l-26.4,26.4c22.2,5.3,48.6,15.3,48.6,45.9c0,25.2-17.5,42.6-46.6,47.1v9.7c0,11.5-4.5,17-14.5,17h-1.3c-10.5,0-14.2-5.2-14.2-17
		v-9.2c-23-2.5-38.4-11-44.5-21.1L140.1,356c59.6,59.6,156.2,59.6,215.8,0C415.6,296.4,415.6,199.8,356,140.2z"/>
</g>
<g>
	<path style="fill:#EFB533;" d="M199.1,279.9c-1-1-13,6.7-13,17.5c0,3.3,1,6.7,2.9,9.8l19-19C204.5,285.6,201.5,282.8,199.1,279.9z"
		/>
	<path style="fill:#EFB533;" d="M257,233.8c-19.2-4.2-32.9-7.7-32.9-20.7c0-11.2,10.2-18.7,26.9-18.7c13.7,0,27.3,5.7,36.9,14
		l17.9-17.9c-3.4-10.9-18-20.6-42.1-23.2v-8.5c0-11.7-4-17-14.2-17H248c-10,0-14.2,5.5-14.2,17v9.2c-26.9,5-43.9,22.2-43.9,46.1
		c0,30.9,25.5,40.5,46.8,45.5l24.8-24.8C259.9,234.4,258.4,234.1,257,233.8z"/>
</g>
<path style="fill:#E5AA17;" d="M293.1,213.6c0.7,1,13.5-7,13.5-18.2c0-1.7-0.3-3.3-0.8-5l-17.9,17.9
	C289.8,210,291.5,211.7,293.1,213.6z"/>
<g>
</g>
<g>
</g>
<g>
</g>
<g>
</g>
<g>
</g>
<g>
</g>
<g>
</g>
<g>
</g>
<g>
</g>
<g>
</g>
<g>
</g>
<g>
</g>
<g>
</g>
<g>
</g>
<g>
</g>
</svg>
