<?xml version="1.0" encoding="iso-8859-1"?>
<!-- Generator: Adobe Illustrator 19.0.0, SVG Export Plug-In . SVG Version: 6.00 Build 0)  -->
<svg version="1.1" id="Capa_1" xmlns="http://www.w3.org/2000/svg"  x="0px" y="0px"
	 viewBox="0 0 512 512" style="enable-background:new 0 0 512 512;" xml:space="preserve">
	<g transform="rotate(180 256 256)">
<g>
	<path style="fill:#FCC69D;" d="M174,409.492v-69.197c0-25.489-8.613-50.229-24.441-70.208l-33.109-41.792
		c-13.053-16.476-39.021-12.781-46.96,6.682l0,0c-3.434,8.42-2.479,17.994,2.552,25.568l35.458,53.391l-8.494-125.203L147.297,75.5
		c6.629-15.543,0.315-33.576-14.561-41.59l0,0c-17.031-9.175-38.26-1.628-45.679,16.238l-45.6,109.817
		c-14.11,33.979-21.373,70.41-21.373,107.203v142.323H174V409.492z"/>
	<path style="fill:#FCC69D;" d="M338,409.492v-69.197c0-25.489,8.613-50.229,24.441-70.208l33.109-41.792
		c13.053-16.476,39.021-12.781,46.96,6.682l0,0c3.434,8.42,2.479,17.994-2.552,25.568L404.5,313.937l8.494-125.203L364.703,75.501
		c-6.629-15.543-0.315-33.576,14.561-41.59l0,0c17.031-9.175,38.26-1.628,45.679,16.238l45.6,109.817
		c14.11,33.979,21.373,70.41,21.373,107.203v142.323"/>
</g>
<g>
	<polyline style="fill:#72D8FF;" points="328,481.992 328,409.492 502,409.492 502,481.992 	"/>
	<polyline style="fill:#72D8FF;" points="184,481.992 184,409.492 10,409.492 10,481.992 	"/>
</g>
<path d="M502,399.492H348v-59.196c0-23.136,7.912-45.864,22.279-63.998l33.109-41.792c3.897-4.92,9.937-7.332,16.15-6.446
	c6.215,0.885,11.341,4.883,13.712,10.695c2.186,5.359,1.58,11.438-1.623,16.26l-35.458,53.391
	c-3.056,4.601-1.803,10.807,2.798,13.862s10.807,1.804,13.862-2.798l35.458-53.391c6.869-10.343,8.17-23.382,3.481-34.878
	c-5.086-12.469-16.081-21.045-29.413-22.942c-13.333-1.897-26.284,3.272-34.645,13.827l-33.109,41.792
	C337.447,285.531,328,312.671,328,340.296v59.196c-5.523,0-10,4.478-10,10v72.5c0,5.522,4.477,10,10,10s10-4.478,10-10v-62.5h154
	v62.5c0,5.522,4.477,10,10,10s10-4.478,10-10v-72.5C512,403.969,507.523,399.492,502,399.492z"/>
<path d="M491.92,356.322c-2.64,0-5.21,1.069-7.07,2.93c-1.87,1.86-2.93,4.44-2.93,7.07c0,2.64,1.06,5.21,2.93,7.069
	c1.86,1.87,4.43,2.931,7.07,2.931c2.63,0,5.21-1.061,7.07-2.931c1.86-1.859,2.93-4.43,2.93-7.069c0-2.63-1.07-5.21-2.93-7.07
	S494.55,356.322,491.92,356.322z"/>
<path d="M403.796,192.657c2.167,5.081,8.04,7.444,13.121,5.275c5.08-2.167,7.442-8.041,5.275-13.121L373.901,71.578
	c-4.63-10.857-0.286-23.265,10.106-28.863c5.717-3.08,12.234-3.578,18.352-1.403c6.118,2.175,10.858,6.675,13.349,12.672
	l45.601,109.817c13.674,32.931,20.608,67.708,20.608,103.367v57.823c0,5.522,4.477,10,10,10s10-4.478,10-10v-57.823
	c0-38.304-7.448-75.663-22.137-111.037L434.179,46.314c-4.618-11.121-13.774-19.813-25.12-23.847
	c-11.347-4.033-23.934-3.073-34.537,2.64c-19.555,10.534-27.731,33.885-19.017,54.316L403.796,192.657z"/>
<path d="M384.375,444.238c-3.729-4.072-10.056-4.352-14.128-0.621c-4.073,3.729-4.352,10.056-0.622,14.129l0.08,0.087
	c1.972,2.153,4.67,3.246,7.378,3.246c2.412,0,4.832-0.867,6.75-2.625c4.073-3.729,4.352-10.056,0.622-14.129L384.375,444.238z"/>
<path d="M184,399.492v-59.196c0-27.625-9.447-54.765-26.602-76.418l-33.109-41.792c-8.362-10.554-21.312-15.723-34.645-13.827
	c-13.332,1.897-24.327,10.473-29.413,22.942c-4.689,11.496-3.388,24.535,3.481,34.878L99.17,319.47
	c3.055,4.602,9.263,5.854,13.862,2.798c4.601-3.056,5.854-9.262,2.798-13.862l-35.458-53.391c-3.203-4.822-3.809-10.9-1.623-16.26
	c2.371-5.813,7.497-9.811,13.712-10.695c6.218-0.882,12.252,1.526,16.15,6.446l33.109,41.792
	C156.088,294.431,164,317.16,164,340.296v59.196H30.083V267.169c0-35.659,6.934-70.436,20.608-103.367L96.292,53.984
	c2.49-5.997,7.23-10.497,13.349-12.672c6.117-2.175,12.636-1.676,18.352,1.403c10.392,5.598,14.736,18.006,10.106,28.863
	L89.808,184.811c-2.167,5.08,0.195,10.955,5.275,13.121c5.079,2.167,10.955-0.195,13.121-5.275l48.291-113.233
	c8.714-20.431,0.538-43.782-19.017-54.316c-10.603-5.712-23.19-6.673-34.537-2.64c-11.346,4.034-20.502,12.726-25.12,23.847
	l-45.6,109.816c-14.689,35.375-22.137,72.733-22.137,111.037v132.323H10c-5.523,0-10,4.478-10,10v72.5c0,5.522,4.477,10,10,10
	s10-4.478,10-10v-62.5h154v62.5c0,5.522,4.477,10,10,10s10-4.478,10-10v-72.5C194,403.969,189.523,399.492,184,399.492z"/>
<path d="M127.625,444.238l-0.08,0.087c-3.73,4.073-3.452,10.399,0.622,14.129c1.919,1.758,4.338,2.625,6.75,2.625
	c2.707,0,5.406-1.093,7.378-3.246l0.08-0.087c3.73-4.073,3.452-10.399-0.622-14.129C137.68,439.886,131.354,440.167,127.625,444.238
	z"/>
	</g>
</svg>
